<svg xmlns="http://www.w3.org/2000/svg" viewBox="0 0 800 480">
<defs><linearGradient id="g" x1="0" y1="0" x2="1" y2="1"><stop offset="0%" stop-color="#0d3a36"></stop><stop offset="100%" stop-color="#232b53"></stop></linearGradient></defs>
<rect width="800" height="480" fill="url(#g)"></rect>
<line x1="100" y1="0" x2="100" y2="480" stroke="rgba(94,153,147,0.08)" stroke-width="1"></line>
<line x1="200" y1="0" x2="200" y2="480" stroke="rgba(94,153,147,0.08)" stroke-width="1"></line>
<line x1="300" y1="0" x2="300" y2="480" stroke="rgba(94,153,147,0.08)" stroke-width="1"></line>
<line x1="400" y1="0" x2="400" y2="480" stroke="rgba(94,153,147,0.08)" stroke-width="1"></line>
<line x1="500" y1="0" x2="500" y2="480" stroke="rgba(94,153,147,0.08)" stroke-width="1"></line>
<line x1="600" y1="0" x2="600" y2="480" stroke="rgba(94,153,147,0.08)" stroke-width="1"></line>
<line x1="700" y1="0" x2="700" y2="480" stroke="rgba(94,153,147,0.08)" stroke-width="1"></line>
<line x1="0" y1="100" x2="800" y2="100" stroke="rgba(94,153,147,0.08)" stroke-width="1"></line>
<line x1="0" y1="200" x2="800" y2="200" stroke="rgba(94,153,147,0.08)" stroke-width="1"></line>
<line x1="0" y1="300" x2="800" y2="300" stroke="rgba(94,153,147,0.08)" stroke-width="1"></line>
<line x1="0" y1="400" x2="800" y2="400" stroke="rgba(94,153,147,0.08)" stroke-width="1"></line>
<rect x="110" y="370" width="70" height="60" rx="2" fill="rgba(19,84,78,0.3)" stroke="rgba(94,153,147,0.4)" stroke-width="1"></rect>
<rect x="220" y="310" width="70" height="120" rx="2" fill="rgba(19,84,78,0.4)" stroke="rgba(94,153,147,0.5)" stroke-width="1"></rect>
<rect x="330" y="230" width="70" height="200" rx="2" fill="rgba(19,84,78,0.55)" stroke="rgba(94,153,147,0.6)" stroke-width="1"></rect>
<rect x="440" y="160" width="70" height="270" rx="2" fill="rgba(19,84,78,0.7)" stroke="rgba(94,153,147,0.7)" stroke-width="1"></rect>
<rect x="550" y="100" width="70" height="330" rx="2" fill="#13544e" stroke="rgba(94,153,147,0.8)" stroke-width="1"></rect>
<rect x="660" y="55" width="70" height="375" rx="2" fill="#13544e" stroke="#5e9993" stroke-width="1.5"></rect>
<path d="M145 390 L255 335 L365 255 L475 185 L585 125 L695 78" stroke="#5e9993" stroke-width="2" fill="none" stroke-dasharray="6,4"></path>
<circle cx="695" cy="78" r="5" fill="#5e9993"></circle>
<line x1="90" y1="430" x2="750" y2="430" stroke="rgba(255,255,255,0.12)" stroke-width="1"></line>
<rect x="60" y="20" width="155" height="26" rx="4" fill="rgba(19,84,78,0.4)"></rect>
<text x="137" y="38" text-anchor="middle" font-family="sans-serif" font-size="10" fill="rgba(94,153,147,0.9)" letter-spacing="2">PIPELINE GROWTH</text>
</svg>