<svg xmlns="http://www.w3.org/2000/svg" viewBox="0 0 800 480">
<defs><linearGradient id="g" x1="0" y1="0" x2="1" y2="1"><stop offset="0%" stop-color="#232b53"></stop><stop offset="100%" stop-color="#1b3332"></stop></linearGradient></defs>
<rect width="800" height="480" fill="url(#g)"></rect>
<g fill="#b8aa98" opacity="0.22">
<circle cx="60" cy="80" r="5"></circle><circle cx="100" cy="80" r="5"></circle><circle cx="140" cy="80" r="5"></circle><circle cx="180" cy="80" r="5"></circle><circle cx="220" cy="80" r="5"></circle><circle cx="260" cy="80" r="5"></circle><circle cx="300" cy="80" r="5"></circle><circle cx="340" cy="80" r="5"></circle><circle cx="420" cy="80" r="5"></circle><circle cx="460" cy="80" r="5"></circle><circle cx="500" cy="80" r="5"></circle><circle cx="540" cy="80" r="5"></circle><circle cx="580" cy="80" r="5"></circle><circle cx="620" cy="80" r="5"></circle><circle cx="660" cy="80" r="5"></circle><circle cx="700" cy="80" r="5"></circle><circle cx="740" cy="80" r="5"></circle>
<circle cx="60" cy="130" r="5"></circle><circle cx="100" cy="130" r="5"></circle><circle cx="140" cy="130" r="5"></circle><circle cx="180" cy="130" r="5"></circle><circle cx="220" cy="130" r="5"></circle><circle cx="260" cy="130" r="5"></circle><circle cx="300" cy="130" r="5"></circle><circle cx="340" cy="130" r="5"></circle><circle cx="420" cy="130" r="5"></circle><circle cx="460" cy="130" r="5"></circle><circle cx="500" cy="130" r="5"></circle><circle cx="540" cy="130" r="5"></circle><circle cx="620" cy="130" r="5"></circle><circle cx="660" cy="130" r="5"></circle><circle cx="700" cy="130" r="5"></circle><circle cx="740" cy="130" r="5"></circle>
<circle cx="60" cy="180" r="5"></circle><circle cx="100" cy="180" r="5"></circle><circle cx="140" cy="180" r="5"></circle><circle cx="220" cy="180" r="5"></circle><circle cx="260" cy="180" r="5"></circle><circle cx="300" cy="180" r="5"></circle><circle cx="420" cy="180" r="5"></circle><circle cx="460" cy="180" r="5"></circle><circle cx="500" cy="180" r="5"></circle><circle cx="580" cy="180" r="5"></circle><circle cx="620" cy="180" r="5"></circle><circle cx="700" cy="180" r="5"></circle><circle cx="740" cy="180" r="5"></circle>
<circle cx="60" cy="230" r="5"></circle><circle cx="100" cy="230" r="5"></circle><circle cx="140" cy="230" r="5"></circle><circle cx="220" cy="230" r="5"></circle><circle cx="300" cy="230" r="5"></circle><circle cx="460" cy="230" r="5"></circle><circle cx="500" cy="230" r="5"></circle><circle cx="580" cy="230" r="5"></circle><circle cx="660" cy="230" r="5"></circle><circle cx="740" cy="230" r="5"></circle>
<circle cx="60" cy="280" r="5"></circle><circle cx="100" cy="280" r="5"></circle><circle cx="220" cy="280" r="5"></circle><circle cx="260" cy="280" r="5"></circle><circle cx="420" cy="280" r="5"></circle><circle cx="500" cy="280" r="5"></circle><circle cx="580" cy="280" r="5"></circle><circle cx="620" cy="280" r="5"></circle><circle cx="740" cy="280" r="5"></circle>
<circle cx="60" cy="330" r="5"></circle><circle cx="100" cy="330" r="5"></circle><circle cx="140" cy="330" r="5"></circle><circle cx="220" cy="330" r="5"></circle><circle cx="260" cy="330" r="5"></circle><circle cx="340" cy="330" r="5"></circle><circle cx="420" cy="330" r="5"></circle><circle cx="460" cy="330" r="5"></circle><circle cx="540" cy="330" r="5"></circle><circle cx="620" cy="330" r="5"></circle><circle cx="700" cy="330" r="5"></circle><circle cx="740" cy="330" r="5"></circle>
<circle cx="60" cy="380" r="5"></circle><circle cx="140" cy="380" r="5"></circle><circle cx="180" cy="380" r="5"></circle><circle cx="260" cy="380" r="5"></circle><circle cx="300" cy="380" r="5"></circle><circle cx="380" cy="380" r="5"></circle><circle cx="460" cy="380" r="5"></circle><circle cx="540" cy="380" r="5"></circle><circle cx="580" cy="380" r="5"></circle><circle cx="660" cy="380" r="5"></circle><circle cx="740" cy="380" r="5"></circle>
</g>
<circle cx="380" cy="230" r="44" fill="rgba(19,84,78,0.08)"></circle>
<circle cx="380" cy="230" r="30" fill="rgba(19,84,78,0.18)"></circle>
<circle cx="380" cy="230" r="18" fill="#13544e"></circle>
<rect x="60" y="422" width="118" height="26" rx="4" fill="rgba(94,153,147,0.2)"></rect>
<text x="119" y="440" text-anchor="middle" font-family="sans-serif" font-size="10" fill="rgba(94,153,147,0.9)" letter-spacing="2">BRAND VOICE</text>
</svg>