<svg xmlns="http://www.w3.org/2000/svg" viewBox="0 0 800 480">
<defs><linearGradient id="g" x1="0" y1="0" x2="1" y2="1"><stop offset="0%" stop-color="#2d1540"></stop><stop offset="100%" stop-color="#232b53"></stop></linearGradient></defs>
<rect width="800" height="480" fill="url(#g)"></rect>
<rect x="180" y="330" width="440" height="26" rx="3" fill="rgba(169,145,187,0.12)" stroke="rgba(169,145,187,0.25)" stroke-width="1"></rect>
<rect x="180" y="296" width="400" height="26" rx="3" fill="rgba(169,145,187,0.18)" stroke="rgba(169,145,187,0.3)" stroke-width="1"></rect>
<rect x="180" y="262" width="360" height="26" rx="3" fill="rgba(169,145,187,0.24)" stroke="rgba(169,145,187,0.38)" stroke-width="1"></rect>
<rect x="180" y="228" width="300" height="26" rx="3" fill="rgba(169,145,187,0.3)" stroke="rgba(169,145,187,0.44)" stroke-width="1"></rect>
<rect x="180" y="194" width="240" height="26" rx="3" fill="rgba(84,44,115,0.45)" stroke="rgba(169,145,187,0.5)" stroke-width="1"></rect>
<rect x="180" y="160" width="160" height="26" rx="3" fill="rgba(84,44,115,0.65)" stroke="rgba(169,145,187,0.6)" stroke-width="1"></rect>
<rect x="180" y="126" width="80" height="26" rx="3" fill="#542c73" stroke="rgba(169,145,187,0.8)" stroke-width="1"></rect>
<text x="172" y="145" text-anchor="end" font-family="sans-serif" font-size="10" fill="rgba(255,255,255,0.35)">Jan</text>
<text x="172" y="179" text-anchor="end" font-family="sans-serif" font-size="10" fill="rgba(255,255,255,0.35)">Feb</text>
<text x="172" y="213" text-anchor="end" font-family="sans-serif" font-size="10" fill="rgba(255,255,255,0.35)">Mar</text>
<text x="172" y="247" text-anchor="end" font-family="sans-serif" font-size="10" fill="rgba(255,255,255,0.35)">Apr</text>
<text x="172" y="281" text-anchor="end" font-family="sans-serif" font-size="10" fill="rgba(255,255,255,0.35)">May</text>
<text x="172" y="315" text-anchor="end" font-family="sans-serif" font-size="10" fill="rgba(255,255,255,0.35)">Jun</text>
<text x="172" y="349" text-anchor="end" font-family="sans-serif" font-size="10" fill="rgba(255,255,255,0.35)">Jul</text>
<line x1="645" y1="356" x2="645" y2="118" stroke="rgba(169,145,187,0.35)" stroke-width="1" stroke-dasharray="4,4"></line>
<polygon points="639,126 645,114 651,126" fill="rgba(169,145,187,0.5)"></polygon>
<text x="660" y="230" font-family="sans-serif" font-size="10" fill="rgba(169,145,187,0.5)" letter-spacing="1" writing-mode="tb">ACCUMULATING</text>
<rect x="60" y="422" width="165" height="26" rx="4" fill="rgba(84,44,115,0.3)"></rect>
<text x="142" y="440" text-anchor="middle" font-family="sans-serif" font-size="10" fill="rgba(169,145,187,0.9)" letter-spacing="2">CONTENT OPERATIONS</text>
</svg>