<svg xmlns="http://www.w3.org/2000/svg" viewBox="0 0 800 480">
<defs><linearGradient id="g" x1="0" y1="0" x2="1" y2="1"><stop offset="0%" stop-color="#2d1540"></stop><stop offset="60%" stop-color="#542c73"></stop><stop offset="100%" stop-color="#232b53"></stop></linearGradient></defs>
<rect width="800" height="480" fill="url(#g)"></rect>
<rect x="190" y="70" width="420" height="310" rx="8" fill="rgba(255,255,255,0.04)" stroke="rgba(255,255,255,0.1)" stroke-width="1"></rect>
<circle cx="290" cy="175" r="46" fill="rgba(169,145,187,0.15)" stroke="rgba(169,145,187,0.3)" stroke-width="1.5"></circle>
<circle cx="290" cy="160" r="18" fill="rgba(169,145,187,0.22)"></circle>
<ellipse cx="290" cy="200" rx="28" ry="16" fill="rgba(169,145,187,0.22)"></ellipse>
<rect x="360" y="142" width="175" height="11" rx="3" fill="rgba(255,255,255,0.5)"></rect>
<rect x="360" y="163" width="135" height="7" rx="2" fill="rgba(255,255,255,0.25)"></rect>
<rect x="360" y="178" width="155" height="7" rx="2" fill="rgba(255,255,255,0.18)"></rect>
<rect x="360" y="200" width="100" height="7" rx="2" fill="rgba(255,255,255,0.12)"></rect>
<rect x="220" y="248" width="105" height="78" rx="4" fill="rgba(255,255,255,0.05)" stroke="rgba(255,255,255,0.1)" stroke-width="1"></rect>
<rect x="347" y="248" width="105" height="78" rx="4" fill="rgba(94,153,147,0.15)" stroke="rgba(94,153,147,0.35)" stroke-width="1.5"></rect>
<rect x="474" y="248" width="105" height="78" rx="4" fill="rgba(255,255,255,0.05)" stroke="rgba(255,255,255,0.1)" stroke-width="1"></rect>
<rect x="234" y="266" width="75" height="6" rx="2" fill="rgba(255,255,255,0.18)"></rect>
<rect x="234" y="278" width="58" height="4" rx="2" fill="rgba(255,255,255,0.1)"></rect>
<rect x="234" y="290" width="66" height="4" rx="2" fill="rgba(255,255,255,0.1)"></rect>
<rect x="361" y="266" width="75" height="6" rx="2" fill="rgba(94,153,147,0.8)"></rect>
<rect x="361" y="278" width="58" height="4" rx="2" fill="rgba(255,255,255,0.3)"></rect>
<rect x="361" y="290" width="66" height="4" rx="2" fill="rgba(255,255,255,0.22)"></rect>
<rect x="488" y="266" width="75" height="6" rx="2" fill="rgba(255,255,255,0.18)"></rect>
<rect x="488" y="278" width="58" height="4" rx="2" fill="rgba(255,255,255,0.1)"></rect>
<rect x="488" y="290" width="66" height="4" rx="2" fill="rgba(255,255,255,0.1)"></rect>
<circle cx="347" cy="344" r="4" fill="rgba(255,255,255,0.2)"></circle>
<circle cx="363" cy="344" r="4" fill="#5e9993"></circle>
<circle cx="379" cy="344" r="4" fill="rgba(255,255,255,0.2)"></circle>
<rect x="60" y="422" width="100" height="26" rx="4" fill="rgba(84,44,115,0.4)"></rect>
<text x="110" y="440" text-anchor="middle" font-family="sans-serif" font-size="10" fill="rgba(169,145,187,0.9)" letter-spacing="2">LINKEDIN</text>
</svg>