<svg xmlns="http://www.w3.org/2000/svg" viewBox="0 0 800 480">
<defs><linearGradient id="g" x1="0" y1="0" x2="1" y2="1"><stop offset="0%" stop-color="#1b2040"></stop><stop offset="100%" stop-color="#13544e"></stop></linearGradient></defs>
<rect width="800" height="480" fill="url(#g)"></rect>
<line x1="0" y1="120" x2="800" y2="120" stroke="rgba(255,255,255,0.05)" stroke-width="1"></line>
<line x1="0" y1="240" x2="800" y2="240" stroke="rgba(255,255,255,0.05)" stroke-width="1"></line>
<line x1="0" y1="360" x2="800" y2="360" stroke="rgba(255,255,255,0.05)" stroke-width="1"></line>
<line x1="200" y1="0" x2="200" y2="480" stroke="rgba(255,255,255,0.05)" stroke-width="1"></line>
<line x1="400" y1="0" x2="400" y2="480" stroke="rgba(255,255,255,0.05)" stroke-width="1"></line>
<line x1="600" y1="0" x2="600" y2="480" stroke="rgba(255,255,255,0.05)" stroke-width="1"></line>
<rect x="60" y="100" width="270" height="260" rx="4" fill="none" stroke="rgba(129,160,208,0.25)" stroke-width="1.5"></rect>
<rect x="470" y="100" width="270" height="260" rx="4" fill="rgba(94,153,147,0.07)" stroke="rgba(94,153,147,0.5)" stroke-width="1.5"></rect>
<line x1="400" y1="80" x2="400" y2="400" stroke="rgba(255,255,255,0.12)" stroke-width="2" stroke-dasharray="8,6"></line>
<circle cx="130" cy="190" r="5" fill="rgba(129,160,208,0.35)"></circle>
<circle cx="200" cy="220" r="5" fill="rgba(129,160,208,0.35)"></circle>
<circle cx="155" cy="265" r="5" fill="rgba(129,160,208,0.35)"></circle>
<circle cx="250" cy="178" r="5" fill="rgba(129,160,208,0.35)"></circle>
<circle cx="285" cy="295" r="5" fill="rgba(129,160,208,0.35)"></circle>
<circle cx="100" cy="310" r="5" fill="rgba(129,160,208,0.35)"></circle>
<circle cx="230" cy="248" r="5" fill="rgba(129,160,208,0.35)"></circle>
<text x="195" y="345" text-anchor="middle" font-family="sans-serif" font-size="10" fill="rgba(129,160,208,0.45)" letter-spacing="2">CONSUMERS</text>
<rect x="500" y="160" width="55" height="8" rx="2" fill="rgba(94,153,147,0.7)"></rect>
<rect x="500" y="178" width="95" height="5" rx="2" fill="rgba(255,255,255,0.25)"></rect>
<rect x="500" y="191" width="75" height="5" rx="2" fill="rgba(255,255,255,0.18)"></rect>
<rect x="500" y="225" width="55" height="8" rx="2" fill="rgba(94,153,147,0.7)"></rect>
<rect x="500" y="243" width="95" height="5" rx="2" fill="rgba(255,255,255,0.25)"></rect>
<rect x="500" y="256" width="75" height="5" rx="2" fill="rgba(255,255,255,0.18)"></rect>
<rect x="500" y="290" width="55" height="8" rx="2" fill="rgba(94,153,147,0.7)"></rect>
<rect x="500" y="308" width="95" height="5" rx="2" fill="rgba(255,255,255,0.25)"></rect>
<text x="605" y="345" text-anchor="middle" font-family="sans-serif" font-size="10" fill="rgba(94,153,147,0.7)" letter-spacing="2">ENTERPRISE</text>
<rect x="60" y="422" width="158" height="26" rx="4" fill="rgba(94,153,147,0.2)"></rect>
<text x="139" y="440" text-anchor="middle" font-family="sans-serif" font-size="10" fill="rgba(94,153,147,0.9)" letter-spacing="2">ENTERPRISE STRATEGY</text>
</svg>